<svg xmlns="http://www.w3.org/2000/svg" width="14.8" height="14.8" viewBox="0 0 14.8 14.8"><defs><style>.a{fill:#333;}</style></defs><path class="a" d="M9.018,5.665v.694a.348.348,0,0,1-.347.347H6.706V8.672a.348.348,0,0,1-.347.347H5.665a.348.348,0,0,1-.347-.347V6.706H3.353a.348.348,0,0,1-.347-.347V5.665a.348.348,0,0,1,.347-.347H5.319V3.353a.348.348,0,0,1,.347-.347h.694a.348.348,0,0,1,.347.347V5.319H8.672A.348.348,0,0,1,9.018,5.665Zm5.68,8.38-.653.653a.347.347,0,0,1-.491,0l-3.509-3.509a.343.343,0,0,1-.1-.246v-.382a6.011,6.011,0,1,1,.619-.619h.382a.355.355,0,0,1,.246.1L14.7,13.554A.347.347,0,0,1,14.7,14.045ZM10.637,6.012a4.625,4.625,0,1,0-4.625,4.625A4.624,4.624,0,0,0,10.637,6.012Z"/></svg>